<?xml version="1.0" encoding="UTF-8" standalone="no"?>
<svg
   xmlns:dc="http://purl.org/dc/elements/1.1/"
   xmlns:cc="http://creativecommons.org/ns#"
   xmlns:rdf="http://www.w3.org/1999/02/22-rdf-syntax-ns#"
   xmlns:svg="http://www.w3.org/2000/svg"
   xmlns="http://www.w3.org/2000/svg"
   id="svg8"
   version="1.1"
   viewBox="0 0 210 297"
   height="297mm"
   width="210mm">
  <defs
     id="defs2" />
  <metadata
     id="metadata5">
    <rdf:RDF>
      <cc:Work
         rdf:about="">
        <dc:format>image/svg+xml</dc:format>
        <dc:type
           rdf:resource="http://purl.org/dc/dcmitype/StillImage" />
        <dc:title></dc:title>
      </cc:Work>
    </rdf:RDF>
  </metadata>
  <g
     id="layer1">
    <path
       d="m 59.240066,129.94956 c 4.699501,0.0367 9.388869,-0.1195 14.070136,-0.39301 1.96572,-0.11938 3.91929,-0.28248 5.87893,-0.41758 0.42557,-0.0316 0.85114,-0.0797 1.23618,-0.0797 0.28371,-0.023 0.62822,-0.0183 0.91193,-0.0796 0.24318,-0.0399 0.42557,-0.1195 0.64849,-0.19651 0.11733,-0.15966 0.28371,-0.28248 0.34451,-0.45442 0.1759,-0.5404 -0.0586,-1.11764 -0.34451,-1.60891 -0.42557,-0.72463 -1.13485,-1.56101 -1.82387,-2.1665 -0.42557,-0.35617 -0.89167,-0.6755 -1.35777,-1.01939 -1.3375,-0.7369 -1.8036,-1.11764 -3.39847,-1.58066 -2.6892,-0.78603 -5.852594,-0.7369 -8.687696,-0.58952 -0.749812,0.0399 -1.459094,0.1965 -2.192695,0.31932 -0.668751,0.19651 -1.357768,0.31933 -1.98599,0.55268 -1.722542,0.61409 -3.169477,1.54627 -4.282037,2.6283 -0.911934,0.88428 -1.195647,1.38538 -1.884664,2.36669 -0.810608,1.29449 -1.418564,2.65654 -1.864399,4.03455 -0.243182,0.8106 -0.425569,1.40012 -0.425569,2.23037 0.0034,0.31932 0.05857,0.62637 0.117133,0.94569 0.283713,0.99483 0.790343,2.06334 2.058945,2.69585 0.992995,0.49128 1.479359,0.49128 2.683113,0.71235 2.589893,0.0397 3.491694,0.11938 6.553766,-0.28249 1.053791,-0.15966 2.103528,-0.41758 3.122868,-0.68778 2.419666,-0.62637 5.319615,-1.604 7.536625,-2.48091 1.35777,-0.52812 2.64259,-1.14221 3.9659,-1.71331 5.96608,-2.84322 11.24314,-6.28457 16.10882,-9.95313 1.72254,-1.33994 3.2404,-2.80392 4.991308,-4.12789 -0.70928,0.005 1.0538,-0.45443 0.72955,-0.46671 -0.70928,-0.0215 -1.47936,-0.0796 -2.148108,0.11963 -0.24318,0.0796 -0.0395,0.39301 -0.11713,0.57724 -0.28372,0.93341 -0.72955,1.65312 -1.21591,2.56934 -0.34451,0.57724 -0.64849,1.15448 -0.993,1.72559 -0.66875,1.08079 -1.82387,2.80392 -2.49667,3.85892 -1.41857,2.20703 -2.80065,4.42266 -4.22935,6.62601 -1.70228,2.54109 -3.668,4.88446 -6.60443,6.87533 -1.25644,0.85972 -2.85942,1.78085 -4.66302,2.11492 -0.56743,0.1195 -1.17539,0.0171 -1.76308,0.0258 0.28372,-0.15967 0.85114,-0.24564 0.9322,-0.49127 0.11714,-0.31933 -0.28371,-0.61409 -0.4661,-0.93342 0.11714,-0.40529 0.0586,-0.84744 0.28372,-1.21589 0.56742,-1.01938 1.76307,-1.94788 3.00127,-2.61601 0.77008,-0.41759 1.68201,-0.73692 2.51289,-1.09309 0.9322,-0.28248 1.84413,-0.58952 2.77228,-0.84744 1.3983,-0.39301 3.25662,-0.77375 4.75219,-1.04395 0.60795,-0.11938 1.17538,-0.1965 1.8036,-0.28248 1.3983,-0.1195 1.66175,-0.1195 2.69527,-0.0796 3.88484,0.0796 7.783868,0.15967 11.662628,-0.0797 2.00625,-0.1195 4.15436,-0.28248 6.1059,-0.67549 0.89167,-0.19651 1.72255,-0.45443 2.60206,-0.6755 0.74981,-0.31932 1.58068,-0.61409 2.24943,-1.0071 1.88467,-1.06851 3.36403,-2.66023 3.91929,-4.28879 0.42557,-1.26379 0.24319,-1.85577 0.0588,-3.12202 -0.42557,-1.4603 -1.01326,-2.60373 -2.82902,-3.52855 -0.52689,-0.24563 -1.05379,-0.49127 -1.66175,-0.62637 -1.94546,-0.45442 -4.26582,-0.0398 -6.14643,0.0796 -0.77008,0.31933 -1.64148,0.52812 -2.35685,0.90885 -4.01251,2.06702 -6.11806,5.56364 -7.5731,8.72127 -0.42557,0.87201 -0.70928,1.76489 -1.05379,2.64918 -0.28372,0.90885 -0.56743,1.80541 -0.81061,2.71304 -0.283708,1.01938 -0.466098,2.04736 -0.749808,3.07043 -0.993,3.86261 -2.05895,7.72645 -3.62747,11.50309 -0.4661,1.19133 -1.09433,2.34581 -1.64149,3.51627 -1.17538,2.29914 -2.45006,4.5774 -4.07128,6.74636 -0.28371,0.39302 -0.56742,0.77375 -0.9322,1.12992 -0.24318,0.24564 -1.09432,0.45443 -0.8106,0.68778 0.28371,0.24563 0.9322,-0.11938 1.37803,-0.19651 -0.1757,-0.4053 -0.4661,-0.79831 -0.52689,-1.23431 -0.24319,-1.77226 0.3445,-4.04807 0.89166,-5.71225 0.79035,-2.57671 1.88467,-5.18904 3.2931,-7.64416 0.70928,-1.23431 1.60095,-2.41705 2.37913,-3.62803 0.91194,-1.05623 1.70228,-2.15421 2.71149,-3.16255 2.466268,-2.44898 5.684388,-4.55161 9.514508,-5.98612 2.50275,-0.93341 3.35795,-0.99482 6.01674,-1.47504 3.08234,-0.28248 2.44196,-0.28248 5.48984,-0.35617 0.24319,-0.004 0.4661,0.016 0.68902,0.0223 0.56743,0.0163 4.33473,0.1195 4.94471,0.1195 1.43883,-0.005 2.85334,-0.0398 4.27799,-0.0796 0.77007,-0.0399 2.89387,-0.15966 3.70245,-0.31932 2.42372,-0.44215 5.21424,-1.534 7.27318,-2.47355 0.89167,-0.4053 1.70228,-0.85972 2.56557,-1.27976 1.94546,-1.1422 4.15437,-2.22668 5.53241,-3.74839 0.62822,-0.67549 1.01326,-1.42959 0.8714,-2.23405 -0.0584,-0.35617 -0.34451,-0.67549 -0.5269,-1.0071 -0.42557,-0.28248 -0.70928,-0.65093 -1.17538,-0.88429 -1.25644,-0.66321 -2.62434,-0.92113 -4.22529,-0.88428 -3.15124,0.0398 -4.98727,0.1195 -7.59135,1.17905 -0.97273,0.39301 -1.8036,0.90884 -2.69527,1.35467 -0.77008,0.57724 -1.60095,1.09308 -2.30821,1.70839 -1.84413,1.60154 -3.31741,3.51381 -3.91321,5.51819 -0.42557,1.35468 -0.24318,1.67646 -0.0588,2.99552 0.1759,0.39302 0.28372,0.82288 0.62822,1.19133 1.49963,1.83981 5.46148,2.70076 8.34116,2.86779 1.03353,0.0796 2.08124,0.007 3.12287,0.011 5.87894,0.0797 11.4316,-1.15448 17.00453,-2.24633 2.23931,-0.44214 4.53535,-0.68778 6.82735,-0.9457 0,0 -2.1704,-0.1965 -2.1704,-0.1965 v 0 c -2.24944,0.28248 -4.50699,0.52811 -6.69563,0.98254 -2.95264,0.58952 -5.88704,1.24905 -8.90453,1.66417 -0.97273,0.1195 -1.96572,0.19651 -2.94656,0.35617 -0.42557,0.0399 -0.81061,0.1195 -1.21591,0.19651 -1.01326,0.002 -2.05895,0.0798 -3.07626,0.007 -2.8047,-0.15966 -6.68752,-0.95798 -8.20943,-2.73146 -0.28372,-0.35617 -0.42557,-0.77375 -0.64849,-1.15448 -0.1757,-1.2945 -0.34451,-1.604 0.002,-2.94762 0.52689,-1.98719 1.96572,-3.88349 3.81999,-5.45924 0.70928,-0.60181 1.54015,-1.12992 2.31428,-1.68506 4.08344,-1.9835 1.21591,-0.79831 5.59522,-2.12228 0.28372,-0.0797 0.5269,-0.31933 0.85114,-0.31933 1.51989,-0.0796 2.89387,0.19651 4.126,0.79831 0.4661,0.24564 0.77008,0.55268 1.15512,0.82288 0.17569,0.31933 0.4661,0.61409 0.52689,0.9457 0.1757,0.77375 -0.24318,1.50574 -0.79034,2.15053 -1.33751,1.51311 -3.48562,2.58899 -5.40068,3.71646 -0.8714,0.41758 -1.68201,0.872 -2.57165,1.27976 -2.24336,1.0071 -4.81704,1.95525 -7.43733,2.40599 -0.87141,0.15966 -2.80673,0.24564 -3.63153,0.31933 -1.09432,0.24563 -0.24318,0.0796 -2.76012,0.0286 -4.18274,-0.1195 -8.41614,-0.28248 -12.55024,0.28248 -2.62434,0.51583 -3.47345,0.57724 -5.9296,1.52907 -3.77338,1.4603 -6.924618,3.60102 -9.328068,6.05 -0.993,1.0071 -1.76307,2.11983 -2.6588,3.17729 -0.77007,1.21589 -1.66174,2.40599 -2.36089,3.64031 -1.41857,2.47723 -2.5372,5.07236 -3.42077,7.6589 -0.52689,1.60399 -1.29697,4.0235 -1.23618,5.76628 0.0164,0.4667 0.28372,0.93341 0.42557,1.38415 0.97273,0.0305 1.96573,0.24564 2.91819,0.0798 0.42557,-0.0798 0.5269,-0.4667 0.72955,-0.71234 0.28371,-0.35617 0.56743,-0.74919 0.85114,-1.1422 1.47936,-2.19475 2.64258,-4.4767 3.73082,-6.77093 0.5269,-1.17905 1.09432,-2.33722 1.58069,-3.52118 1.54015,-3.78769 2.711478,-7.65153 3.795668,-11.51045 0.28371,-1.01939 0.5269,-2.04737 0.81061,-3.06676 0.24318,-0.90885 0.5269,-1.80542 0.81061,-2.70321 0.34451,-0.87201 0.64848,-1.76858 1.03352,-2.64058 1.4591,-3.15764 3.62747,-6.62723 7.73321,-8.62179 0.72954,-0.35617 1.60095,-0.57724 2.41358,-0.85972 0.0444,-0.0796 -0.006,-0.28248 0.11734,-0.28248 1.92519,-0.1195 3.8666,0.61409 5.03387,1.63347 0.42557,0.35617 0.68902,0.74919 0.9322,1.15449 0.24318,0.44214 0.34451,0.92113 0.5269,1.38415 0.1759,1.26502 0.34451,1.80542 -0.0588,3.06307 -0.5269,1.61382 -1.98599,3.15518 -3.87268,4.20404 -0.68902,0.39302 -1.47936,0.65093 -2.23323,0.98254 -0.8714,0.24564 -1.68201,0.47899 -2.57773,0.66322 -1.9252,0.39301 -4.06115,0.55267 -6.04511,0.66321 -2.62435,0.15966 -5.23653,0.15966 -7.866948,0.0398 -1.54016,-0.007 -4.78664,-0.11938 -6.69157,0.0796 -0.58769,0.0798 -1.17539,0.19651 -1.74281,0.28248 -2.5595,0.47899 -5.06225,1.09308 -7.43125,1.92332 -0.87141,0.35617 -1.76307,0.68778 -2.5595,1.12992 -1.72254,0.93342 -3.51398,2.37652 -3.44913,3.98421 0.0146,0.35617 -0.004,0.84744 0.42557,1.01938 0.93219,0.4053 2.14811,0.35617 3.22824,0.57724 0.56743,-0.0297 1.15512,0.0291 1.70228,-0.0796 1.74281,-0.39302 3.27486,-1.30924 4.49887,-2.1751 2.84727,-2.00315 4.87379,-4.40915 6.60849,-6.91094 0.52689,-0.78603 1.05379,-1.56101 1.58068,-2.3495 3.79162,-5.83138 -0.99299,1.40012 2.74189,-4.27528 0.8106,-1.23431 1.76307,-2.61356 2.55544,-3.86384 0.34451,-0.57724 0.709278,-1.1422 1.053788,-1.72435 0.42557,-0.77376 1.03352,-1.77226 1.3983,-2.59268 0.11713,-0.24564 0.4661,-0.55268 0.1757,-0.6755 -1.80361,-0.71234 -2.192698,-0.31932 -3.035728,0.31933 -1.68201,1.33994 -3.14111,2.78795 -4.7988,4.13649 -4.70963,3.70049 -9.88942,7.13815 -15.81699,9.93471 -1.33751,0.57724 -2.63043,1.17905 -3.99022,1.70102 -2.261598,0.872 -5.202079,1.83244 -7.670381,2.44407 -1.033525,0.28248 -2.170403,0.39301 -3.210008,0.66321 -0.243183,0.0398 -0.344509,0.28248 -0.567426,0.28248 -0.648487,0.0796 -1.296973,-0.003 -1.94546,-0.004 -1.155116,-0.19651 -1.661746,-0.19651 -2.612184,-0.62637 -1.256443,-0.60181 -1.763073,-1.63347 -2.081237,-2.59636 -0.04499,-0.31933 -0.117133,-0.61409 -0.117133,-0.93341 -0.02756,-0.8106 0.117133,-1.41486 0.344509,-2.20703 0.425569,-1.36942 1.01326,-2.72041 1.844133,-4.00385 0.689017,-0.9457 1.013261,-1.47504 1.90493,-2.33722 1.114586,-1.05623 2.525044,-1.97245 4.243533,-2.55706 0.628221,-0.19651 1.296973,-0.35617 1.965725,-0.52812 0.729547,-0.0796 1.459095,-0.19651 2.192695,-0.28248 0.117133,-0.0155 0.243182,-0.0797 0.283713,-0.0797 2.277809,0.0797 4.253671,0.39302 6.182911,1.26502 0.56743,0.24564 1.03353,0.57725 1.58069,0.85973 0.4661,0.31932 0.9322,0.65093 1.3375,0.99482 0.68902,0.61408 1.35777,1.40012 1.74281,2.12228 0.24318,0.44215 0.4661,1.00711 0.28371,1.48978 -0.0582,0.1195 -0.24318,0.24563 -0.34451,0.35617 -0.17549,0.0399 -0.42557,0.1195 -0.58769,0.15966 -0.28371,0.0398 -0.56742,0.0398 -0.8714,0.0797 -0.42557,0.0334 -0.79034,0.0796 -1.21591,0.0796 -1.9252,0.15967 -3.83823,0.31933 -5.759374,0.44215 -4.762323,0.28248 -9.540858,0.41758 -14.325473,0.35617 0,0 2.214987,0.24563 2.214987,0.24563 z"
       id="espe"
       style="fill:#000000;fill-opacity:1;fill-rule:nonzero;stroke:none;stroke-width:48.3057" />
  </g>
</svg>
