<?xml version="1.0" encoding="iso-8859-1"?>
<!-- Generator: Adobe Illustrator 19.0.0, SVG Export Plug-In . SVG Version: 6.00 Build 0)  -->
<svg version="1.1" id="Capa_1" xmlns="http://www.w3.org/2000/svg" xmlns:xlink="http://www.w3.org/1999/xlink" x="0px" y="0px"
	 viewBox="0 0 512 512" style="enable-background:new 0 0 512 512;" xml:space="preserve">
<g>
	<g transform="translate(1 1)">
		<path style="fill:#607D8B;" d="M451.267,50.2v426.667H24.6c-9.414-0.028-17.039-7.653-17.067-17.067V50.2H451.267z"/>
		<path style="fill:#CFD8DC;" d="M425.667,50.2v426.667H24.6c-9.414-0.028-17.039-7.653-17.067-17.067V50.2H425.667z"/>
		<path style="fill:#283593;" d="M451.267,24.6v51.2H7.533V24.6C7.561,15.186,15.186,7.561,24.6,7.533h409.6
			C443.614,7.561,451.239,15.186,451.267,24.6z"/>
		<path style="fill:#3F51B5;" d="M425.667,24.6v51.2H7.533V24.6C7.561,15.186,15.186,7.561,24.6,7.533h384
			C418.014,7.561,425.639,15.186,425.667,24.6z"/>
		<path style="fill:#F44335;" d="M263.533,434.2l54.609-70.211c3.233-4.157,8.205-6.589,13.472-6.589h102.773
			c5.267,0,10.238,2.432,13.472,6.589l54.609,70.211v25.6H263.533V434.2z"/>
		<path style="fill:#F5F5F5;" d="M400.067,285.635V383c0,4.713-3.82,8.533-8.533,8.533h-17.067c-4.713,0-8.533-3.82-8.533-8.533
			v-97.365H400.067z"/>
		<g>
			<circle style="fill:#F44335;" cx="383" cy="246.467" r="42.667"/>
			<path style="fill:#F44335;" d="M263.533,434.2h238.933v51.2c0,9.426-7.641,17.067-17.067,17.067H280.6
				c-9.426,0-17.067-7.641-17.067-17.067V434.2z"/>
		</g>
		<path style="fill:#C52828;" d="M502.467,434.2v51.2c-0.028,9.414-7.653,17.039-17.067,17.067h-25.6
			c9.414-0.028,17.039-7.653,17.067-17.067v-51.2l-54.613-70.229c-3.231-4.164-8.212-6.592-13.483-6.571l25.6,0
			c5.27-0.021,10.252,2.406,13.483,6.571L502.467,434.2z"/>
	</g>
	<g>
		<path d="M36.608,48.642c1.617,1.597,3.786,2.513,6.059,2.558c4.699-0.032,8.501-3.834,8.533-8.533
			c-0.033-2.259-0.917-4.422-2.475-6.059c-2.441-2.462-6.129-3.201-9.331-1.872c-3.202,1.329-5.281,4.464-5.261,7.931
			c-0.031,1.119,0.203,2.23,0.683,3.242C35.231,46.927,35.84,47.855,36.608,48.642z"/>
		<path d="M76.8,51.2c1.115-0.014,2.216-0.246,3.242-0.683c1.034-0.433,1.986-1.039,2.817-1.791c2.444-2.441,3.154-6.125,1.792-9.3
			c-0.432-1.035-1.038-1.988-1.792-2.817c-3.422-3.159-8.696-3.159-12.117,0c-0.772,0.816-1.38,1.772-1.792,2.817
			c-1.124,2.624-0.847,5.638,0.737,8.014C71.27,49.813,73.945,51.228,76.8,51.2z"/>
		<path d="M110.933,51.2c2.855,0.03,5.532-1.385,7.115-3.761c1.584-2.376,1.86-5.39,0.735-8.014
			c-0.431-1.035-1.037-1.988-1.791-2.817c-0.407-0.367-0.836-0.709-1.283-1.025c-0.474-0.324-0.99-0.582-1.533-0.767
			c-0.51-0.259-1.059-0.433-1.625-0.517c-1.094-0.25-2.231-0.25-3.325,0c-0.534,0.096-1.05,0.27-1.533,0.517
			c-0.546,0.184-1.065,0.442-1.542,0.767c-0.445,0.316-0.871,0.658-1.276,1.025c-0.754,0.829-1.36,1.782-1.792,2.817
			c-0.48,1.012-0.714,2.123-0.683,3.242c-0.022,2.27,0.87,4.453,2.475,6.058C106.48,50.33,108.663,51.222,110.933,51.2z"/>
		<path d="M51.2,128h85.333c4.713,0,8.533-3.821,8.533-8.533c0-4.713-3.821-8.533-8.533-8.533H51.2
			c-4.713,0-8.533,3.821-8.533,8.533C42.667,124.179,46.487,128,51.2,128z"/>
		<path d="M136.533,145.067H76.8c-4.713,0-8.533,3.82-8.533,8.533s3.821,8.533,8.533,8.533h59.733c4.713,0,8.533-3.821,8.533-8.533
			S141.246,145.067,136.533,145.067z"/>
		<path d="M51.2,196.267h281.6c4.713,0,8.533-3.821,8.533-8.533c0-4.713-3.82-8.533-8.533-8.533H51.2
			c-4.713,0-8.533,3.821-8.533,8.533C42.667,192.446,46.487,196.267,51.2,196.267z"/>
		<path d="M51.2,230.4h256c4.713,0,8.533-3.821,8.533-8.533c0-4.713-3.82-8.533-8.533-8.533h-256c-4.713,0-8.533,3.821-8.533,8.533
			C42.667,226.579,46.487,230.4,51.2,230.4z"/>
		<path d="M51.2,264.533h34.133c4.713,0,8.533-3.821,8.533-8.533c0-4.713-3.821-8.533-8.533-8.533H51.2
			c-4.713,0-8.533,3.821-8.533,8.533C42.667,260.713,46.487,264.533,51.2,264.533z"/>
		<path d="M187.733,281.6H68.267c-4.713,0-8.533,3.821-8.533,8.533c0,4.713,3.821,8.533,8.533,8.533h119.467
			c4.713,0,8.533-3.821,8.533-8.533C196.267,285.421,192.446,281.6,187.733,281.6z"/>
		<path d="M59.733,358.4c-0.001,2.264,0.897,4.435,2.498,6.035c1.601,1.601,3.772,2.499,6.035,2.498h102.4
			c4.713,0,8.533-3.82,8.533-8.533s-3.821-8.533-8.533-8.533h-102.4c-2.264-0.001-4.435,0.897-6.035,2.498
			C60.631,353.965,59.732,356.136,59.733,358.4z"/>
		<path d="M179.2,384H85.333c-4.713,0-8.533,3.82-8.533,8.533s3.821,8.533,8.533,8.533H179.2c4.713,0,8.533-3.82,8.533-8.533
			S183.913,384,179.2,384z"/>
		<path d="M51.2,332.8H128c4.713,0,8.533-3.82,8.533-8.533s-3.821-8.533-8.533-8.533H51.2c-4.713,0-8.533,3.821-8.533,8.533
			S46.487,332.8,51.2,332.8z"/>
		<path d="M179.2,426.667h-128c-4.713,0-8.533,3.82-8.533,8.533s3.821,8.533,8.533,8.533h128c4.713,0,8.533-3.821,8.533-8.533
			S183.913,426.667,179.2,426.667z"/>
		<path d="M179.2,315.733h-17.067c-4.713,0-8.533,3.821-8.533,8.533s3.821,8.533,8.533,8.533H179.2c4.713,0,8.533-3.82,8.533-8.533
			S183.913,315.733,179.2,315.733z"/>
		<path d="M119.467,247.467c-4.713,0-8.533,3.821-8.533,8.533c0,4.713,3.821,8.533,8.533,8.533H153.6
			c4.713,0,8.533-3.821,8.533-8.533c0-4.713-3.821-8.533-8.533-8.533H119.467z"/>
		<path d="M511.448,432.464c-0.205-0.553-0.468-1.082-0.786-1.579c-0.134-0.319-0.288-0.628-0.462-0.927l-49.4-63.512V25.6
			C460.785,11.468,449.332,0.015,435.2,0H25.6C11.468,0.015,0.015,11.468,0,25.6v435.2c0.015,14.132,11.468,25.585,25.6,25.6H256
			c0.015,14.132,11.468,25.585,25.6,25.6h204.8c14.132-0.015,25.585-11.468,25.6-25.6v-51.2c-0.046-0.346-0.115-0.688-0.206-1.025
			C511.74,433.594,511.624,433.02,511.448,432.464z M384,281.6c-18.851,0-34.133-15.282-34.133-34.133s15.282-34.133,34.133-34.133
			c18.851,0,34.133,15.282,34.133,34.133C418.115,266.31,402.844,281.581,384,281.6z M384,298.667
			c2.861-0.018,5.715-0.275,8.533-0.771V384h-17.067v-86.104C378.285,298.391,381.139,298.649,384,298.667z M366.933,401.067h34.133
			c2.264,0.001,4.435-0.897,6.035-2.498c1.601-1.601,2.499-3.772,2.498-6.035v-25.6h25.783c2.634,0.009,5.118,1.225,6.741,3.3
			l43.895,56.433H281.981l43.894-56.433c1.623-2.075,4.107-3.291,6.741-3.3H358.4v25.6c-0.001,2.264,0.897,4.435,2.498,6.035
			C362.499,400.169,364.67,401.068,366.933,401.067z M25.6,17.067h409.6c4.712,0.003,8.53,3.822,8.533,8.533v42.667H17.067V25.6
			C17.07,20.888,20.888,17.07,25.6,17.067z M25.6,469.333c-4.712-0.003-8.53-3.822-8.533-8.533V85.333h426.667v266.088
			c-2.677-0.982-5.499-1.508-8.35-1.555H409.6V291.74c20.069-11.587,29.853-35.208,23.855-57.592
			c-5.998-22.384-26.282-37.948-49.455-37.948c-23.173,0-43.458,15.565-49.455,37.948s3.787,46.005,23.855,57.592v58.127h-25.783
			c-7.906-0.027-15.375,3.626-20.208,9.883L257.8,429.958c-0.174,0.299-0.329,0.609-0.463,0.929
			c-0.661,0.977-1.051,2.112-1.131,3.29c-0.091,0.336-0.16,0.678-0.206,1.023v34.133H25.6z M494.933,486.4
			c-0.003,4.712-3.822,8.53-8.533,8.533H281.6c-4.712-0.003-8.53-3.822-8.533-8.533v-42.667h221.867V486.4z"/>
	</g>
</g>
<g>
</g>
<g>
</g>
<g>
</g>
<g>
</g>
<g>
</g>
<g>
</g>
<g>
</g>
<g>
</g>
<g>
</g>
<g>
</g>
<g>
</g>
<g>
</g>
<g>
</g>
<g>
</g>
<g>
</g>
</svg>
