<?xml version="1.0" encoding="iso-8859-1"?>
<svg viewBox="0 0 219.5 109.33">
 <path class="loop" d="M6.75,72 C16.72333,72 26.69667,72 36.67,72 42.5,71.66 51,68.05 58.52,60.52 66.42,52.63 -114.035,37.423 -111.502,25.437 -108.981,13.423 75,3.56 68.66,15.18 62.32,26.8 88.765,-1.713 89.173,9.93 89.56,21.531 66.76,73.74 71.91,71.17 77.06,68.6 79,65.48 83.21,58.64 83.21,58.64 83.21,66.28 85.63,69 87.07125,70.88385 89.47385,71.76142 91.79,71.25 94.71867,70.00472 97.11788,67.77181 98.57,64.94 100.8,60.94 104.2,52.23 100.84,45.94 97.48,39.65 90.13,43.32 88.44,47.94 86.75,52.56 87.79,57.29 91.81,59.34 95.83,61.39 105.45,62.79 109.23,57.99 109.23,57.99 110.4,71.81 118.33,71.81 124.18,71.5 125.46,68.88 127.71,64.5 129.96,60.12 132.55,51.15 127.5,45.04 121.96,39.19 115.26,43.97 114.23,49.14 113.26151,53.93634 115.13691,58.8622 119.05,61.8 122.53,64.15 128.7,62.94 129.53,62.69 130.36,62.44 134.8,63.78 138.47,56.01 142.14,48.24 142.08,43.01 142.08,43.01 142.08,43.01 148.71,97.44 143.84,102.69 138.97,107.94 137.76,97.24 138.21,89.98 138.66,82.72 146.08,57 152,49.74 157.92,42.48 166.19,40.33 170.94,48.46 175.69,56.59 165.46,69.86 157.94,70.46 150.42,71.06 150.19,67.62 151.53,64.33 152.87,61.04 157.98,59.74 162.33,62.1 166.68,64.46 175.86,71.7 186.07,71.48 190.54333,71.48 195.01667,71.48 199.49,71.48 " fill="none" stroke="#393b54" stroke-linecap="round" stroke-linejoin="round" stroke-width="5"/>
    <path class="boop" opacity="0" d="M6.75,72l29.92,0C42.5,71.66,51,68.05,58.52,60.52c7.9-7.89,18.13-26.58,20.65-38.58S75,3.56,68.66,15.18s-7,32.1-6.6,43.73,4.7,14.83,9.85,12.26S79,65.48,83.21,58.64c0,0,0,7.64,2.42,10.36a6.1,6.1,0,0,0,6.16,2.25,13.6,13.6,0,0,0,6.78-6.31c2.23-4,5.63-12.71,2.27-19s-10.71-2.62-12.4,2-.65,9.35,3.37,11.4,13.64,3.45,17.42-1.35c0,0,1.17,13.82,9.1,13.82,5.85-.31,7.13-2.93,9.38-7.31s4.84-13.35-.21-19.46c-5.54-5.85-12.24-1.07-13.27,4.1a12.69,12.69,0,0,0,4.82,12.66c3.48,2.35,9.65,1.14,10.48.89s5.27,1.09,8.94-6.68,3.61-13,3.61-13,6.63,54.43,1.76,59.68-6.08-5.45-5.63-12.71S146.08,57,152,49.74s14.19-9.41,18.94-1.28-5.48,21.4-13,22-7.75-2.84-6.41-6.13,6.45-4.59,10.8-2.23,13.53,9.6,23.74,9.38l13.42,0" fill="none" stroke="#7d7f8e" stroke-linecap="round" stroke-linejoin="round" stroke-width="5"/>
    <path class="boop2" opacity="0" d="M6.75,72l29.92,0C42.5,71.66,51,68.05,58.52,60.52c7.9-7.89,18.13-26.58,20.65-38.58S75,3.56,68.66,15.18s-7,32.1-6.6,43.73,4.7,14.83,9.85,12.26S79,65.48,83.21,58.64c0,0,0,7.64,2.42,10.36a6.1,6.1,0,0,0,6.16,2.25,13.6,13.6,0,0,0,6.78-6.31c2.23-4,5.63-12.71,2.27-19s-10.71-2.62-12.4,2-.65,9.35,3.37,11.4,13.64,3.45,17.42-1.35c0,0,1.17,13.82,9.1,13.82,5.85-.31,7.13-2.93,9.38-7.31s4.84-13.35-.21-19.46c-5.54-5.85-12.24-1.07-13.27,4.1a12.69,12.69,0,0,0,4.82,12.66c3.48,2.35,9.65,1.14,10.48.89s5.27,1.09,8.94-6.68,3.61-13,3.61-13,6.63,54.43,1.76,59.68-6.08-5.45-5.63-12.71S146.08,57,152,49.74s14.19-9.41,18.94-1.28-5.48,21.4-13,22-7.75-2.84-6.41-6.13,6.45-4.59,10.8-2.23,13.53,9.6,23.74,9.38l13.42,0" fill="none" stroke="#7d7f8e" stroke-linecap="round" stroke-linejoin="round" stroke-width="5"/>

  <circle class="ball" cx="26.76" cy="72.01" r="2.26" fill="#64C898"/>
</svg>
