<?xml version="1.0" encoding="UTF-8"?>
<svg xmlns="http://www.w3.org/2000/svg" xmlns:xlink="http://www.w3.org/1999/xlink" width="50pt" height="50pt" viewBox="0 0 50 50" version="1.1">
<g id="surface1">
<path style=" stroke:none;fill-rule:nonzero;fill:rgb(0%,0%,0%);fill-opacity:1;" d="M 49.507812 42.289062 L 39.558594 32.339844 L 46.65625 28.238281 C 47.210938 27.917969 47.535156 27.308594 47.488281 26.671875 C 47.441406 26.03125 47.035156 25.472656 46.441406 25.238281 L 14.785156 12.609375 C 14.164062 12.363281 13.457031 12.507812 12.984375 12.980469 C 12.511719 13.453125 12.363281 14.160156 12.613281 14.78125 L 25.238281 46.441406 C 25.472656 47.035156 26.03125 47.441406 26.671875 47.488281 C 27.308594 47.535156 27.917969 47.210938 28.238281 46.65625 L 32.339844 39.558594 L 42.289062 49.511719 C 42.601562 49.824219 43.027344 50 43.46875 50 C 43.914062 50 44.339844 49.824219 44.652344 49.511719 L 49.507812 44.652344 C 50.160156 44 50.160156 42.941406 49.507812 42.289062 Z M 43.46875 45.964844 L 33.164062 35.65625 C 32.847656 35.339844 32.421875 35.164062 31.980469 35.164062 C 31.90625 35.164062 31.835938 35.167969 31.761719 35.179688 C 31.246094 35.246094 30.792969 35.550781 30.53125 36 L 27.066406 42 L 17.160156 17.160156 L 42 27.066406 L 36 30.53125 C 35.546875 30.792969 35.246094 31.246094 35.175781 31.761719 C 35.109375 32.277344 35.285156 32.796875 35.652344 33.164062 L 45.960938 43.472656 Z M 7.34375 4.976562 C 6.6875 4.324219 5.628906 4.324219 4.976562 4.976562 C 4.324219 5.628906 4.324219 6.6875 4.976562 7.339844 L 8.691406 11.054688 C 9.019531 11.382812 9.445312 11.546875 9.875 11.546875 C 10.300781 11.546875 10.730469 11.382812 11.058594 11.054688 C 11.710938 10.402344 11.710938 9.34375 11.058594 8.691406 Z M 8.601562 16.535156 C 8.601562 15.609375 7.851562 14.863281 6.929688 14.863281 L 1.675781 14.863281 C 0.75 14.863281 0.00390625 15.609375 0.00390625 16.535156 C 0.00390625 17.457031 0.75 18.207031 1.675781 18.207031 L 6.929688 18.207031 C 7.851562 18.207031 8.601562 17.457031 8.601562 16.535156 Z M 7.921875 21.695312 L 4.207031 25.410156 C 3.554688 26.0625 3.554688 27.121094 4.207031 27.777344 C 4.535156 28.101562 4.960938 28.265625 5.390625 28.265625 C 5.816406 28.265625 6.246094 28.101562 6.570312 27.777344 L 10.289062 24.058594 C 10.941406 23.40625 10.941406 22.347656 10.289062 21.695312 C 9.636719 21.042969 8.578125 21.042969 7.921875 21.695312 Z M 16.535156 8.597656 C 17.457031 8.597656 18.207031 7.851562 18.207031 6.925781 L 18.207031 1.671875 C 18.207031 0.75 17.460938 0 16.535156 0 C 15.613281 0 14.863281 0.75 14.863281 1.671875 L 14.863281 6.925781 C 14.863281 7.851562 15.613281 8.597656 16.535156 8.597656 Z M 22.878906 10.773438 C 23.304688 10.773438 23.734375 10.613281 24.058594 10.285156 L 27.773438 6.570312 C 28.429688 5.917969 28.429688 4.859375 27.773438 4.207031 C 27.121094 3.550781 26.0625 3.550781 25.410156 4.207031 L 21.695312 7.921875 C 21.042969 8.574219 21.042969 9.632812 21.695312 10.285156 C 22.023438 10.613281 22.449219 10.773438 22.878906 10.773438 Z M 22.878906 10.773438 "/>
</g>
</svg>
